<?xml version="1.0" encoding="UTF-8" standalone="no"?>
<svg
   width="473.53381"
   height="478.68149"
   viewBox="0 0 250.5783 253.30229"
   version="1.1"
   id="svg8"
   sodipodi:docname="logo.svg"
   inkscape:version="1.1 (c68e22c387, 2021-05-23)"
   xmlns:inkscape="http://www.inkscape.org/namespaces/inkscape"
   xmlns:sodipodi="http://sodipodi.sourceforge.net/DTD/sodipodi-0.dtd"
   xmlns:xlink="http://www.w3.org/1999/xlink"
   xmlns="http://www.w3.org/2000/svg"
   xmlns:svg="http://www.w3.org/2000/svg"
   xmlns:rdf="http://www.w3.org/1999/02/22-rdf-syntax-ns#"
   xmlns:cc="http://creativecommons.org/ns#"
   xmlns:dc="http://purl.org/dc/elements/1.1/">
  <defs
     id="defs2">
    <linearGradient
       inkscape:collect="always"
       id="linearGradient871">
      <stop
         style="stop-color:#ca6165;stop-opacity:1"
         offset="0"
         id="stop867" />
      <stop
         style="stop-color:#378d97;stop-opacity:0"
         offset="1"
         id="stop869" />
    </linearGradient>
    <linearGradient
       inkscape:collect="always"
       id="linearGradient1228">
      <stop
         style="stop-color:#ccdeec;stop-opacity:1"
         offset="0"
         id="stop1224" />
      <stop
         style="stop-color:#aa9898;stop-opacity:1"
         offset="1"
         id="stop1226" />
    </linearGradient>
    <radialGradient
       inkscape:collect="always"
       xlink:href="#linearGradient1228"
       id="radialGradient1222"
       cx="241.39355"
       cy="167.52107"
       fx="241.39355"
       fy="167.52107"
       r="241.39355"
       gradientUnits="userSpaceOnUse"
       gradientTransform="matrix(-2.294544,0,0,-2.4496405,795.28162,589.65625)" />
    <linearGradient
       inkscape:collect="always"
       xlink:href="#linearGradient871"
       id="linearGradient873"
       x1="584.83179"
       y1="549.64832"
       x2="-45.188324"
       y2="-18.11104"
       gradientUnits="userSpaceOnUse" />
    <filter
       inkscape:collect="always"
       style="color-interpolation-filters:sRGB"
       id="filter875"
       x="-0.0025538262"
       width="1.0051077"
       y="-0.0025538262"
       height="1.0051077">
      <feGaussianBlur
         inkscape:collect="always"
         stdDeviation="0.00024139356"
         id="feGaussianBlur877" />
    </filter>
  </defs>
  <sodipodi:namedview
     id="base"
     pagecolor="#376f70"
     bordercolor="#666666"
     borderopacity="1.0"
     inkscape:pageopacity="0"
     inkscape:pageshadow="2"
     inkscape:zoom="1.4142136"
     inkscape:cx="333.75439"
     inkscape:cy="336.58282"
     inkscape:document-units="mm"
     inkscape:current-layer="g818"
     showgrid="false"
     showborder="false"
     inkscape:showpageshadow="false"
     inkscape:snap-global="false"
     inkscape:window-width="1920"
     inkscape:window-height="1009"
     inkscape:window-x="0"
     inkscape:window-y="0"
     inkscape:window-maximized="1"
     fit-margin-top="0"
     fit-margin-left="0"
     fit-margin-right="0"
     fit-margin-bottom="0"
     units="px"
     scale-x="2"
     inkscape:document-rotation="0"
     showguides="true"
     inkscape:guide-bbox="true"
     inkscape:pagecheckerboard="0">
    <sodipodi:guide
       position="125.2802,13.589791"
       orientation="1,0"
       id="guide6447" />
  </sodipodi:namedview>
  <metadata
     id="metadata5">
    <rdf:RDF>
      <cc:Work
         rdf:about="">
        <dc:format>image/svg+xml</dc:format>
        <dc:type
           rdf:resource="http://purl.org/dc/dcmitype/StillImage" />
      </cc:Work>
    </rdf:RDF>
  </metadata>
  <g
     inkscape:label="color"
     inkscape:groupmode="layer"
     id="layer1"
     style="display:none;opacity:1"
     transform="translate(-6.7574767,-257.78008)">
    <path
       style="display:inline;opacity:1;fill:#03acf0;stroke-width:0.0846667"
       d="m 38.176427,355.71825 -6.28585,-6.2865 -0.47548,0.0295 c -1.62396,0.10091 -2.84291,-1.3441 -2.44478,-2.89815 0.20939,-0.81732 0.69051,-1.3632 1.46206,-1.65885 1.36031,-0.52125 2.85505,0.30953 3.15481,1.75349 0.0818,0.39388 0.0737,0.56705 -0.0497,1.07155 l -0.14728,0.60175 5.5786,5.52401 5.578597,5.52401 4.191,-4.16924 c 2.30505,-2.29307 10.06792,-10.03664 17.250833,-17.2079 l 13.05983,-13.03868 -0.002,-4.78377 -0.002,-4.78377 -0.34506,-0.21166 c -1.32583,-0.81329 -1.47866,-2.74195 -0.29953,-3.77986 1.45846,-1.28378 3.69139,-0.39052 3.92354,1.56957 0.0959,0.80969 -0.46501,1.8944 -1.16742,2.25763 l -0.24431,0.12634 v 5.18789 5.1879 l -18.1486,18.1356 c -9.981713,9.97458 -18.182833,18.1356 -18.224703,18.1356 -0.0419,0 -2.90474,-2.82893 -6.361947,-6.2865 z m -4.78421,-24.76532 -11.15452,-11.15476 -0.003,-1.82021 -0.003,-1.82022 -0.37799,-0.22937 c -0.41687,-0.25295 -0.83827,-0.84378 -0.98282,-1.37799 -0.20832,-0.76986 0.0577,-1.6988 0.65176,-2.27572 0.49582,-0.48154 0.83003,-0.60424 1.64574,-0.60424 0.8157,0 1.14991,0.1227 1.64573,0.60424 0.59404,0.57692 0.86009,1.50586 0.65176,2.27572 -0.14455,0.53421 -0.56595,1.12504 -0.98281,1.37799 l -0.378,0.22937 -0.003,1.43946 -0.003,1.43948 10.22391,10.22366 10.223907,10.22363 1.93258,-1.93394 1.93257,-1.93394 -0.0846,-0.45817 c -0.27768,-1.50377 0.83315,-2.83236 2.35697,-2.81899 0.70441,0.006 1.22991,0.24986 1.72412,0.79953 0.43705,0.4861 0.69672,1.25592 0.60888,1.80515 -0.22724,1.42111 -1.40596,2.28888 -2.81002,2.0687 l -0.488,-0.0765 -2.58696,2.58596 -2.58697,2.58596 -11.154517,-11.15478 z m -18.73219,3.08423 c -0.98478,-0.47846 -1.5392,-1.57611 -1.31771,-2.60885 l 0.0959,-0.44707 -2.62758,-2.62858 -2.6275903,-2.62857 v -23.21244 -23.21243 l -0.29487,-0.18224 C 7.137867,278.65326 6.679337,277.73241 6.768507,276.8684 c 0.19755,-1.91409 2.4662497,-2.81742 3.90196,-1.55365 0.60868,0.53577 0.77016,0.9066 0.7705,1.76933 1.7e-4,0.53771 -0.0393,0.79459 -0.15648,1.016 -0.19725,0.37287 -0.70101,0.90745 -1.00594,1.0675 l -0.23283,0.12218 v 22.83723 22.83722 l 2.35114,2.35002 2.35115,2.35002 0.48705,-0.0978 c 1.01656,-0.20415 2.12433,0.36507 2.56904,1.32009 0.38201,0.82036 0.24031,1.87163 -0.34588,2.56605 -0.42427,0.50261 -0.91847,0.72472 -1.6897,0.75944 -0.59118,0.0266 -0.74318,0.003 -1.10847,-0.17485 z m 44.080287,-6.41158 c -0.85047,-0.43008 -1.26385,-1.11542 -1.27402,-2.11217 -0.0156,-1.52503 1.45759,-2.67999 2.905563,-2.27796 l 0.33048,0.0918 2.14602,-2.14478 2.14601,-2.14477 V 305.51154 291.98542 H 44.547364 24.100367 v 3.46835 3.46835 l 0.1905,0.0975 c 0.39872,0.20414 0.91325,0.79585 1.08031,1.24236 0.43206,1.15479 -0.0413,2.39414 -1.13214,2.96416 -0.35933,0.18777 -0.54548,0.22732 -1.07001,0.22732 -0.52452,0 -0.71067,-0.0396 -1.07,-0.22732 -1.09084,-0.57002 -1.5642,-1.80937 -1.13214,-2.96416 0.16706,-0.4465 0.68159,-1.03822 1.08031,-1.24236 l 0.1905,-0.0975 v -4.39968 -4.39969 h 22.309667 22.309663 v 14.83729 14.8373 l -2.42057,2.42166 -2.42059,2.42166 0.0918,0.33054 c 0.27533,0.99165 -0.19811,2.072 -1.15334,2.63179 -0.30131,0.17658 -0.52557,0.23329 -1.03005,0.26046 -0.5938,0.032 -0.68761,0.0131 -1.183943,-0.23787 z m 20.689713,-24.96142 c -0.73107,-0.19082 -1.34508,-0.708 -1.65756,-1.39615 -0.19526,-0.43 -0.21249,-1.24638 -0.0368,-1.74427 0.16542,-0.46885 0.53625,-0.92607 0.96378,-1.18832 l 0.34506,-0.21167 0.002,-10.05417 0.002,-10.05417 H 52.211354 25.374197 l -0.1222,0.23284 c -0.16003,0.30492 -0.69461,0.80868 -1.06749,1.00594 -0.41709,0.22064 -1.61467,0.22072 -2.032,9e-5 -1.49602,-0.7908 -1.80479,-2.66249 -0.63259,-3.83468 0.46501,-0.46497 1.02808,-0.70618 1.64859,-0.70618 0.77546,0 1.61914,0.47496 2.0329,1.14446 l 0.18225,0.29488 h 27.763757 27.763763 v 11.00448 11.00451 l 0.24431,0.12634 c 0.4043,0.20906 0.9037,0.84904 1.06655,1.36676 0.45204,1.43719 -0.58063,2.93374 -2.10038,3.04387 -0.24098,0.0175 -0.55245,0.002 -0.69215,-0.0345 z"
       id="path3882"
       inkscape:connector-curvature="0" />
    <path
       style="display:inline;opacity:1;fill:#1a74bb;stroke-width:0.0846667"
       d="m 40.504524,318.10316 -3.958157,-4.1905 v -4.99463 -4.99462 h 8.000997 8.001 v 0.93133 0.93134 h -7.06967 -7.069667 l 0.005,3.70416 0.005,3.70417 3.052077,3.21733 c 1.67864,1.76954 3.05913,3.21734 3.06775,3.21734 0.009,0 1.39736,-1.45733 3.08607,-3.2385 l 3.07038,-3.2385 h 0.92686 0.92685 v 0.37425 0.37424 l -3.95123,4.17659 c -2.17317,2.29712 -3.99245,4.18556 -4.04283,4.19653 -0.0504,0.011 -1.87278,-1.86576 -4.04977,-4.17053 z M 8.5640266,265.91709 c -0.65218,-0.1678 -1.24885,-0.66552 -1.5543297,-1.29657 -0.17196,-0.35521 -0.18133,-0.49588 -0.18133,-2.72122 0,-2.55575 0.0143,-2.64926 0.5005697,-3.26318 0.13694,-0.17289 0.4518,-0.42671 0.6997,-0.56403 l 0.45073,-0.24968 h 1.9896604 c 2.24146,0 2.33448,0.0216 2.97987,0.69133 0.47721,0.49521 0.65675,0.9701 0.65894,1.74284 l 0.002,0.65617 h -0.80434 -0.80434 v -0.5559 c 0,-0.93394 0.11618,-0.88344 -2.032,-0.88344 -1.7490204,0 -1.8617904,0.01 -1.9443504,0.16377 -0.11804,0.22056 -0.11804,4.27791 0,4.49847 0.0826,0.15426 0.19533,0.16376 1.9443504,0.16376 2.14818,0 2.032,0.0505 2.032,-0.88343 v -0.5559 h 0.80434 0.80433 v 0.67826 c 0,1.04021 -0.41513,1.75282 -1.29341,2.22023 -0.33537,0.17848 -0.47069,0.19134 -2.17792,0.20709 -1.0011904,0.009 -1.9346404,-0.0126 -2.0743404,-0.0486 z m 14.0118904,-1.80818 -8.5e-4,-1.88383 -1.88337,-2.08247 c -1.03587,-1.14536 -1.93568,-2.14549 -1.99959,-2.2225 -0.10669,-0.12905 -0.029,-0.14003 0.99047,-0.14003 h 1.10627 l 1.25359,1.37958 c 0.68948,0.75878 1.29169,1.38276 1.33826,1.38663 0.0466,0.004 0.64813,-0.61694 1.33681,-1.37959 l 1.25214,-1.38662 h 1.10574 1.10573 l -0.4263,0.48683 c -0.23447,0.26777 -1.13238,1.26789 -1.99536,2.2225 l -1.56906,1.73567 -0.003,1.88383 -0.003,1.88384 h -0.80433 -0.80433 l -8.4e-4,-1.88384 z m 12.13589,1.80619 c -0.75999,-0.19114 -1.44789,-0.87566 -1.69067,-1.68238 -0.21196,-0.70425 -0.22073,-0.69531 0.68216,-0.69531 h 0.79761 l 0.0588,0.27517 c 0.10555,0.49362 0.0772,0.48683 2.03634,0.48683 1.69986,0 1.81218,-0.01 1.89463,-0.16376 0.12143,-0.2269 0.11113,-1.21822 -0.0139,-1.3433 -0.0728,-0.0727 -0.62096,-0.1016 -1.93072,-0.1016 -1.79604,0 -1.83702,-0.004 -2.26707,-0.21825 -0.49623,-0.24729 -0.77909,-0.54863 -1.08895,-1.16012 -0.59148,-1.16722 -0.1498,-2.60319 0.99588,-3.23772 l 0.45545,-0.25225 h 1.82033 c 1.71636,0 1.84033,0.0107 2.17039,0.18723 0.684927,0.36635 1.231447,1.12636 1.351977,1.88011 l 0.0553,0.34566 h -0.80842 -0.808427 l -0.0588,-0.27516 c -0.105,-0.49108 -0.0884,-0.48684 -1.90195,-0.48684 -1.23499,0 -1.69548,0.0277 -1.76006,0.10584 -0.27102,0.32797 -0.1724,1.24487 0.15261,1.41881 0.0895,0.0479 0.91699,0.084 1.92393,0.084 1.72924,0 1.77629,0.005 2.20491,0.21825 0.818467,0.40787 1.234717,1.1302 1.240327,2.15242 0.004,0.75189 -0.20677,1.29862 -0.69673,1.80634 -0.628987,0.65179 -0.768277,0.68733 -2.768657,0.70646 -0.9779,0.009 -1.8987,-0.0134 -2.04622,-0.0504 z m 11.571217,-4.02869 v -4.10633 h 3.683 3.683 v 0.84667 0.84666 h -2.88184 -2.88185 l 0.0243,0.78317 0.0243,0.78317 2.13784,0.0226 2.13783,0.0226 v 0.80142 0.80144 l -2.13783,0.0226 -2.13784,0.0226 -0.0243,0.78317 -0.0243,0.78316 h 2.88185 2.88184 v 0.84667 0.84667 h -3.683 -3.683 z m 15.183453,4.02512 c -0.40611,-0.0967 -1.0136,-0.48212 -1.24292,-0.78851 -0.52874,-0.70643 -0.52086,-0.65746 -0.52086,-3.23661 v -2.37066 l 0.2274,-0.43096 c 0.12507,-0.23702 0.36994,-0.55612 0.54418,-0.70909 0.60504,-0.53124 0.71935,-0.55329 2.86909,-0.55329 1.86911,0 1.96345,0.008 2.34854,0.19759 0.50279,0.24762 1.02696,0.8351 1.2011,1.34619 0.0734,0.21526 0.13336,0.6513 0.13336,0.96897 v 0.57759 h -0.79479 -0.79477 l -0.0329,-0.58229 c -0.0504,-0.89173 0.0327,-0.85705 -2.05397,-0.85705 -1.28169,0 -1.822,0.029 -1.89464,0.1016 -0.14469,0.1447 -0.14469,4.47811 0,4.6228 0.0726,0.0727 0.61418,0.1016 1.9002,0.1016 2.10978,0 2.0622,0.0209 2.0622,-0.90784 v -0.53149 h 0.81469 0.8147 l -0.0357,0.74674 c -0.0415,0.86879 -0.24969,1.31779 -0.84855,1.83039 -0.56014,0.47945 -0.95825,0.55683 -2.81367,0.54687 -0.88796,-0.005 -1.73516,-0.0374 -1.88269,-0.0726 z m 10.32235,0.0206 c 0.019,-0.0365 1.07722,-1.88562 2.35151,-4.10917 l 2.3169,-4.04284 h 0.47288 0.47288 l 2.07185,3.61564 c 1.13952,1.9886 2.19789,3.83645 2.35192,4.10633 l 0.28007,0.4907 -0.9574,-5.8e-4 -0.95741,-5.9e-4 -0.40772,-0.7191 -0.40774,-0.71911 h -2.4452 -2.44519 l -0.40988,0.6985 -0.40987,0.6985 -0.95612,0.024 c -0.52585,0.0132 -0.94053,-0.006 -0.92148,-0.0423 z m 6.48917,-3.26251 c -0.14755,-0.28202 -1.09116,-1.93699 -1.23608,-2.16793 -0.12221,-0.19473 -0.14195,-0.17005 -0.83703,1.04738 -0.39152,0.68575 -0.71186,1.26127 -0.71186,1.27894 0,0.0177 0.64904,0.0321 1.44232,0.0321 h 1.44231 z"
       id="path3880"
       inkscape:connector-curvature="0" />
  </g>
  <g
     transform="translate(-6.7574767,-257.78008)"
     style="display:inline;opacity:1"
     id="g818"
     inkscape:groupmode="layer"
     inkscape:label="bg">
    <g
       id="g952"
       transform="matrix(0.5291667,0,0,0.5291667,4.3276887,257.28609)"
       style="stroke:#fffefe;stroke-opacity:1">
      <g
         id="layer3"
         inkscape:label="bg"
         style="display:none;opacity:1;mix-blend-mode:multiply;stroke:#fffefe;stroke-opacity:1;filter:url(#filter875)"
         transform="translate(-166.99188,-194.42415)">
        <path
           id="rect1202"
           style="fill:url(#radialGradient1222);fill-opacity:1;stroke:#fffefe;stroke-width:2.46475;stroke-miterlimit:4;stroke-dasharray:none;stroke-opacity:1"
           d="M 0.12890625,0 C 0.05707625,0 0,0.05710625 0,0.12890625 V 482.6582 c 0,0.0718 0.05710625,0.12891 0.12890625,0.12891 H 482.6582 c 0.0718,0 0.12891,-0.0571 0.12891,-0.12891 V 0.12890625 C 482.78711,0.05708625 482.73,0 482.6582,0 Z M 241.35938,1.8945312 359.32617,70.003906 V 206.2207 l 117.9668,68.10742 v 136.2168 L 359.32617,478.65234 241.35938,410.54492 123.39258,478.65234 5.4238281,410.54492 V 274.32812 L 123.39258,206.2207 V 70.003906 Z"
           transform="translate(166.99188,194.42415)" />
      </g>
      <g
         id="layer1-6"
         inkscape:label="lines"
         style="display:inline;opacity:1;stroke:#fffefe;stroke-opacity:1"
         transform="translate(-166.99188,-194.42415)">
        <path
           style="fill:none;stroke:#fffefe;stroke-width:1.5;stroke-linecap:butt;stroke-linejoin:miter;stroke-miterlimit:4;stroke-dasharray:none;stroke-opacity:1"
           d="M 526.31743,264.42778 408.35049,332.53601"
           id="path900" />
        <path
           style="fill:none;stroke:#fffefe;stroke-width:1.5;stroke-linecap:butt;stroke-linejoin:miter;stroke-miterlimit:4;stroke-dasharray:none;stroke-opacity:1"
           d="M 408.35049,468.75251 V 332.53601"
           id="path904" />
        <path
           style="fill:none;stroke:#fffefe;stroke-width:1.5;stroke-linecap:butt;stroke-linejoin:miter;stroke-miterlimit:4;stroke-dasharray:none;stroke-opacity:1"
           d="m 290.38355,264.42778 117.96694,68.10823"
           id="path908" />
        <path
           style="fill:none;stroke:#fffefe;stroke-width:1.66601;stroke-linecap:butt;stroke-linejoin:miter;stroke-miterlimit:4;stroke-dasharray:none;stroke-opacity:1"
           d="m 408.35049,196.31954 117.96694,68.10824 V 400.64427 L 408.35049,468.75251 290.38355,400.64427 V 264.42778 Z"
           id="path910" />
        <path
           id="path914"
           style="fill:none;stroke:#fffefe;stroke-width:3;stroke-linecap:butt;stroke-linejoin:miter;stroke-miterlimit:4;stroke-dasharray:none;stroke-opacity:1"
           d="M 241.35938,34.451172 151.58594,86.28125 v 103.66016 l 41.88476,24.18164 a 76.92881,76.92881 0 0 1 47.88868,-16.72266 76.92881,76.92881 0 0 1 47.88671,16.72266 l 41.88477,-24.18164 V 86.28125 Z"
           transform="translate(166.99188,194.42415)" />
        <path
           style="fill:none;stroke:#fffefe;stroke-width:1.5;stroke-linecap:butt;stroke-linejoin:miter;stroke-miterlimit:4;stroke-dasharray:none;stroke-opacity:1"
           d="m 526.31743,673.07724 1e-5,-136.21649"
           id="path941" />
        <path
           style="fill:none;stroke:#fffefe;stroke-width:1.5;stroke-linecap:butt;stroke-linejoin:miter;stroke-miterlimit:4;stroke-dasharray:none;stroke-opacity:1"
           d="m 408.35049,468.75251 117.96695,68.10824"
           id="path945" />
        <path
           style="fill:none;stroke:#fffefe;stroke-width:1.5;stroke-linecap:butt;stroke-linejoin:miter;stroke-miterlimit:4;stroke-dasharray:none;stroke-opacity:1"
           d="M 644.28437,468.75251 526.31744,536.86075"
           id="path949" />
        <path
           style="fill:none;stroke:#fffefe;stroke-width:1.666;stroke-linecap:butt;stroke-linejoin:miter;stroke-miterlimit:4;stroke-dasharray:none;stroke-opacity:1"
           d="M 644.28437,604.969 526.31743,673.07724 408.35049,604.969 V 468.75251 l 117.96694,-68.10824 117.96694,68.10824 z"
           id="path951" />
        <path
           id="path955"
           style="fill:none;fill-opacity:0;stroke:#fffefe;stroke-width:3;stroke-linecap:butt;stroke-linejoin:miter;stroke-miterlimit:4;stroke-dasharray:none;stroke-opacity:1"
           d="m 359.32617,238.77734 -41.88476,24.18164 a 76.92881,76.92881 0 0 1 0.8457,11.36914 76.92881,76.92881 0 0 1 -48.73438,71.57422 v 48.36328 l 89.77344,51.83008 89.77149,-51.83008 v -103.6582 z"
           transform="translate(166.99188,194.42415)" />
        <path
           style="fill:none;stroke:#fffefe;stroke-width:1.5;stroke-linecap:butt;stroke-linejoin:miter;stroke-miterlimit:4;stroke-dasharray:none;stroke-opacity:1"
           d="m 172.41661,468.75251 117.96693,68.10826"
           id="path961" />
        <path
           style="fill:none;stroke:#fffefe;stroke-width:1.5;stroke-linecap:butt;stroke-linejoin:miter;stroke-miterlimit:4;stroke-dasharray:none;stroke-opacity:1"
           d="M 408.35049,468.75251 290.38354,536.86075"
           id="path965" />
        <path
           style="fill:none;stroke:#fffefe;stroke-width:1.5;stroke-linecap:butt;stroke-linejoin:miter;stroke-miterlimit:4;stroke-dasharray:none;stroke-opacity:1"
           d="m 290.38355,673.07724 -1e-5,-136.21647"
           id="path969" />
        <path
           style="fill:none;stroke:#fffefe;stroke-width:1.66601;stroke-linecap:butt;stroke-linejoin:miter;stroke-miterlimit:4;stroke-dasharray:none;stroke-opacity:1"
           d="M 172.41661,604.969 V 468.75251 l 117.96694,-68.10824 117.96694,68.10824 V 604.969 l -117.96694,68.10824 z"
           id="path971" />
        <path
           id="path975"
           style="fill:none;stroke:#fffefe;stroke-width:3;stroke-linecap:butt;stroke-linejoin:miter;stroke-miterlimit:4;stroke-dasharray:none;stroke-opacity:1"
           d="m 123.39258,238.77734 -89.773439,51.83008 v 103.6582 l 89.773439,51.83008 89.77148,-51.83008 V 345.9043 a 76.92881,76.92881 0 0 1 -48.73437,-71.57618 76.92881,76.92881 0 0 1 0.8457,-11.36914 z"
           transform="translate(166.99188,194.42415)" />
      </g>
      <g
         id="layer4"
         inkscape:label="circle"
         style="display:inline;mix-blend-mode:normal;stroke:#fffefe;stroke-opacity:1">
        <g
           id="g974"
           style="stroke:#fffefe;stroke-opacity:1">
          <path
             id="path912"
             style="display:inline;opacity:1;fill:none;stroke:#fffefe;stroke-width:7;stroke-linecap:round;stroke-linejoin:miter;stroke-miterlimit:4;stroke-dasharray:none;stroke-opacity:1"
             d="m 363.16165,238.3776 -58.93702,34.04436 V 392.66325 L 408.3589,452.77169 512.49318,392.66325 V 272.42196 L 453.53176,238.3776"
             sodipodi:nodetypes="ccccccc"
             transform="translate(-166.99188,-194.42415)" />
          <path
             id="path953"
             style="display:inline;opacity:1;fill:none;stroke:#fffefe;stroke-width:7;stroke-linecap:round;stroke-linejoin:miter;stroke-miterlimit:4;stroke-dasharray:none;stroke-opacity:1"
             d="m 630.45544,544.80529 -0.015,-68.06315 -104.13201,-60.12064 -104.12257,60.1287 -0.0117,120.23717 104.13202,60.12064 58.96399,-34.03992"
             sodipodi:nodetypes="ccccccc"
             transform="translate(-166.99188,-194.42415)" />
          <path
             id="path973"
             style="display:inline;opacity:1;fill:none;stroke:#fffefe;stroke-width:7;stroke-linecap:round;stroke-linejoin:miter;stroke-miterlimit:4;stroke-dasharray:none;stroke-opacity:1"
             d="m 231.43438,623.07465 58.9518,34.01879 104.13201,-60.12066 -0.0117,-120.23714 -104.12258,-60.12872 -104.13202,60.12065 -0.003,68.08428"
             sodipodi:nodetypes="ccccccc"
             transform="translate(-166.99188,-194.42415)" />
          <circle
             style="fill:#ffffff;fill-opacity:0;stroke:#fffefe;stroke-width:20;stroke-miterlimit:4;stroke-dasharray:none;stroke-opacity:1"
             id="path1231"
             r="56.000999"
             cy="274.32837"
             cx="241.35861" />
        </g>
      </g>
      <g
         id="layer5"
         inkscape:label="shade"
         style="display:none;opacity:1;stroke:#fffefe;stroke-opacity:1">
        <path
           style="display:inline;mix-blend-mode:multiply;fill:url(#linearGradient873);fill-opacity:1;stroke:#fffefe;stroke-width:5;stroke-miterlimit:4;stroke-dasharray:none;stroke-opacity:1"
           d="M 241.35938,1.89453 359.32617,70.003905 V 206.2207 l 117.9668,68.10743 V 410.54492 L 359.32617,478.65234 241.35938,410.54492 123.39258,478.65234 5.42382,410.54492 V 274.32813 L 123.39258,206.2207 V 70.003905 Z"
           id="path1312" />
      </g>
    </g>
  </g>
</svg>
